<?xml version="1.0" encoding="UTF-8"?>
<svg width="248px" height="93px" viewBox="0 0 248 93" version="1.1" xmlns="http://www.w3.org/2000/svg" xmlns:xlink="http://www.w3.org/1999/xlink">
    <!-- Generator: Sketch 44.1 (41455) - http://www.bohemiancoding.com/sketch -->
    <title>maple west</title>
    <desc>Created with Sketch.</desc>
    <defs></defs>
    <g id="Page-1" stroke="none" stroke-width="1" fill="none" fill-rule="evenodd">
        <g id="maple" transform="translate(-2.000000, -22.000000)">
            <text font-family="Baskerville" font-size="100" font-weight="normal" letter-spacing="1.5" fill="#FFFFFF">
                <tspan x="0" y="90">maple west</tspan>
            </text>
            <g id="Flag_of_Canada" transform="translate(214.000000, 25.000000)" fill-rule="nonzero">
                <rect id="Rectangle-path" fill="#FF0000" x="0" y="0" width="36" height="18"></rect>
                <rect id="Rectangle-path" fill="#FFFFFF" x="9" y="0" width="18" height="18"></rect>
                <path d="M17.9997221,1.6875 L16.7716498,3.97801044 C16.6322988,4.2269508 16.382624,4.20386112 16.1329489,4.06482012 L15.2438573,3.60443124 L15.9065111,7.1226072 C16.045862,7.76535804 15.5987618,7.76535804 15.3781157,7.4874438 L13.8264779,5.75040816 L13.5745722,6.63251616 C13.5455231,6.74835588 13.417799,6.870024 13.2261829,6.84105012 L11.2641192,6.4285218 L11.7794678,8.3021328 C11.8897902,8.71903224 11.9758442,8.89164288 11.6680928,9.00159804 L10.96875,9.33028704 L14.3463157,12.0737887 C14.4800017,12.1775231 14.5475453,12.3642007 14.4999522,12.5332243 L14.2043432,13.5033188 C15.367289,13.3692653 16.4093065,13.167585 17.5728413,13.043376 C17.6755576,13.0324108 17.847517,13.2019229 17.8468117,13.3209569 L17.6927231,16.875 L18.2581531,16.875 L18.1691478,13.3285788 C18.1684386,13.2095448 18.3244417,13.0324108 18.427158,13.043376 C19.5906928,13.1675854 20.6327117,13.3692653 21.7956571,13.5033188 L21.5000489,12.5332243 C21.4524558,12.3642007 21.519999,12.1775231 21.653685,12.0737887 L25.03125,9.33028704 L24.3319079,9.00159804 C24.0241558,8.89164288 24.1102098,8.71903224 24.2205322,8.3021328 L24.7358819,6.4285218 L22.7738171,6.84105012 C22.582201,6.870024 22.4544769,6.74835588 22.4254271,6.63251616 L22.1735218,5.75040816 L20.6218847,7.4874438 C20.4012378,7.76535804 19.9541372,7.76535804 20.0934882,7.1226072 L20.7561409,3.60443124 L19.8670511,4.06482012 C19.6173698,4.20386112 19.3677012,4.2269508 19.2283499,3.97801044" id="Shape" fill="#FF0000"></path>
            </g>
        </g>
    </g>
</svg>