<?xml version="1.0" encoding="UTF-8"?>
<svg width="374px" height="374px" viewBox="0 0 374 374" version="1.1" xmlns="http://www.w3.org/2000/svg" xmlns:xlink="http://www.w3.org/1999/xlink">
    <!-- Generator: Sketch 44.1 (41455) - http://www.bohemiancoding.com/sketch -->
    <title>net-2</title>
    <desc>Created with Sketch.</desc>
    <defs></defs>
    <g id="Page-1" stroke="none" stroke-width="1" fill="none" fill-rule="evenodd">
        <g id="Desktop-HD" transform="translate(-533.000000, -326.000000)" fill-rule="nonzero" fill="#FFFFFF">
            <g id="net-2" transform="translate(720.000000, 513.000000) rotate(15.000000) translate(-720.000000, -513.000000) translate(456.000000, 249.000000)">
                <g id="Group-2" transform="translate(263.789632, 264.056368) rotate(120.000000) translate(-263.789632, -264.056368) translate(70.739632, 71.006368)">
                    <g id="Conservative_maple_leaf" transform="translate(192.632000, 368.632000) rotate(180.000000) translate(-192.632000, -368.632000) translate(175.472000, 351.472000)">
                        <path d="M16.8950432,0.0185549619 L14.997304,3.32383502 L13.9164345,5.18943462 C13.6194328,5.43280067 13.3173586,5.66728392 12.7265214,5.43759462 L10.3046084,4.30943485 L10.3103475,4.34111462 L10.285478,4.32879485 L10.8459997,7.03215462 L11.8924345,12.2927946 C12.0374144,13.190723 11.4809189,13.683082 10.6585214,12.9527946 L6.85730404,9.09487462 L6.17817361,11.2139146 C6.06943683,11.4006318 5.80861217,11.5229757 5.42252143,11.4779146 L0.697304287,10.5503946 L2.13782603,15.3939146 C2.25255293,15.7360541 2.16598174,15.9936212 1.98478255,16.1243146 L0.018173913,17.0078346 L8.04540995,23.0719188 C8.38176829,23.3149841 8.56309727,23.4656948 8.48609313,24.1260518 L7.80289664,26.2423046 L15.6785385,25.4498315 C15.9919501,25.4300744 16.2532823,25.5444406 16.2508195,25.7179699 L15.7719048,33.746414 L18.0294014,33.7734448 L17.4994455,25.7263396 C17.4960823,25.5183155 17.6957336,25.4147283 18.0398665,25.4517424 L26.0390549,26.2842782 L25.4183718,24.403781 C25.2699165,24.0018865 25.2086514,23.6087892 25.5618207,23.2323627 L33.7738258,17.0289546 L31.8072171,16.1454346 C31.6260179,16.0147412 31.5394473,15.7571752 31.6541736,15.4150346 L33.0946953,10.5715146 L28.369478,11.4990346 C27.9833872,11.5440957 27.7225632,11.4217529 27.6138258,11.2350346 L26.9346953,9.11599462 L23.135391,12.9739146 C22.3129935,13.704202 21.7545856,13.2118447 21.8995649,12.3139146 L23.1506953,6.02367462 L23.5065214,4.30767502 L21.0846084,5.43583462 C20.4837138,5.66943309 20.1813507,5.42303985 19.879391,5.17535462 L16.8950432,0.0185549619 Z" id="path1882"></path>
                    </g>
                    <g id="Conservative_maple_leaf" transform="translate(176.000000, 0.000000)">
                        <path d="M16.8950432,0.0185549619 L14.997304,3.32383502 L13.9164345,5.18943462 C13.6194328,5.43280067 13.3173586,5.66728392 12.7265214,5.43759462 L10.3046084,4.30943485 L10.3103475,4.34111462 L10.285478,4.32879485 L10.8459997,7.03215462 L11.8924345,12.2927946 C12.0374144,13.190723 11.4809189,13.683082 10.6585214,12.9527946 L6.85730404,9.09487462 L6.17817361,11.2139146 C6.06943683,11.4006318 5.80861217,11.5229757 5.42252143,11.4779146 L0.697304287,10.5503946 L2.13782603,15.3939146 C2.25255293,15.7360541 2.16598174,15.9936212 1.98478255,16.1243146 L0.018173913,17.0078346 L8.04540995,23.0719188 C8.38176829,23.3149841 8.56309727,23.4656948 8.48609313,24.1260518 L7.80289664,26.2423046 L15.6785385,25.4498315 C15.9919501,25.4300744 16.2532823,25.5444406 16.2508195,25.7179699 L15.7719048,33.746414 L18.0294014,33.7734448 L17.4994455,25.7263396 C17.4960823,25.5183155 17.6957336,25.4147283 18.0398665,25.4517424 L26.0390549,26.2842782 L25.4183718,24.403781 C25.2699165,24.0018865 25.2086514,23.6087892 25.5618207,23.2323627 L33.7738258,17.0289546 L31.8072171,16.1454346 C31.6260179,16.0147412 31.5394473,15.7571752 31.6541736,15.4150346 L33.0946953,10.5715146 L28.369478,11.4990346 C27.9833872,11.5440957 27.7225632,11.4217529 27.6138258,11.2350346 L26.9346953,9.11599462 L23.135391,12.9739146 C22.3129935,13.704202 21.7545856,13.2118447 21.8995649,12.3139146 L23.1506953,6.02367462 L23.5065214,4.30767502 L21.0846084,5.43583462 C20.4837138,5.66943309 20.1813507,5.42303985 19.879391,5.17535462 L16.8950432,0.0185549619 Z" id="path1882"></path>
                    </g>
                    <g id="Conservative_maple_leaf" transform="translate(368.632000, 193.160000) rotate(90.000000) translate(-368.632000, -193.160000) translate(351.472000, 176.000000)">
                        <path d="M16.8950432,0.0185549619 L14.997304,3.32383502 L13.9164345,5.18943462 C13.6194328,5.43280067 13.3173586,5.66728392 12.7265214,5.43759462 L10.3046084,4.30943485 L10.3103475,4.34111462 L10.285478,4.32879485 L10.8459997,7.03215462 L11.8924345,12.2927946 C12.0374144,13.190723 11.4809189,13.683082 10.6585214,12.9527946 L6.85730404,9.09487462 L6.17817361,11.2139146 C6.06943683,11.4006318 5.80861217,11.5229757 5.42252143,11.4779146 L0.697304287,10.5503946 L2.13782603,15.3939146 C2.25255293,15.7360541 2.16598174,15.9936212 1.98478255,16.1243146 L0.018173913,17.0078346 L8.04540995,23.0719188 C8.38176829,23.3149841 8.56309727,23.4656948 8.48609313,24.1260518 L7.80289664,26.2423046 L15.6785385,25.4498315 C15.9919501,25.4300744 16.2532823,25.5444406 16.2508195,25.7179699 L15.7719048,33.746414 L18.0294014,33.7734448 L17.4994455,25.7263396 C17.4960823,25.5183155 17.6957336,25.4147283 18.0398665,25.4517424 L26.0390549,26.2842782 L25.4183718,24.403781 C25.2699165,24.0018865 25.2086514,23.6087892 25.5618207,23.2323627 L33.7738258,17.0289546 L31.8072171,16.1454346 C31.6260179,16.0147412 31.5394473,15.7571752 31.6541736,15.4150346 L33.0946953,10.5715146 L28.369478,11.4990346 C27.9833872,11.5440957 27.7225632,11.4217529 27.6138258,11.2350346 L26.9346953,9.11599462 L23.135391,12.9739146 C22.3129935,13.704202 21.7545856,13.2118447 21.8995649,12.3139146 L23.1506953,6.02367462 L23.5065214,4.30767502 L21.0846084,5.43583462 C20.4837138,5.66943309 20.1813507,5.42303985 19.879391,5.17535462 L16.8950432,0.0185549619 Z" id="path1882"></path>
                    </g>
                    <g id="Conservative_maple_leaf" transform="translate(17.160000, 193.160000) scale(-1, 1) rotate(90.000000) translate(-17.160000, -193.160000) translate(0.000000, 176.000000)">
                        <path d="M16.8950432,0.0185549619 L14.997304,3.32383502 L13.9164345,5.18943462 C13.6194328,5.43280067 13.3173586,5.66728392 12.7265214,5.43759462 L10.3046084,4.30943485 L10.3103475,4.34111462 L10.285478,4.32879485 L10.8459997,7.03215462 L11.8924345,12.2927946 C12.0374144,13.190723 11.4809189,13.683082 10.6585214,12.9527946 L6.85730404,9.09487462 L6.17817361,11.2139146 C6.06943683,11.4006318 5.80861217,11.5229757 5.42252143,11.4779146 L0.697304287,10.5503946 L2.13782603,15.3939146 C2.25255293,15.7360541 2.16598174,15.9936212 1.98478255,16.1243146 L0.018173913,17.0078346 L8.04540995,23.0719188 C8.38176829,23.3149841 8.56309727,23.4656948 8.48609313,24.1260518 L7.80289664,26.2423046 L15.6785385,25.4498315 C15.9919501,25.4300744 16.2532823,25.5444406 16.2508195,25.7179699 L15.7719048,33.746414 L18.0294014,33.7734448 L17.4994455,25.7263396 C17.4960823,25.5183155 17.6957336,25.4147283 18.0398665,25.4517424 L26.0390549,26.2842782 L25.4183718,24.403781 C25.2699165,24.0018865 25.2086514,23.6087892 25.5618207,23.2323627 L33.7738258,17.0289546 L31.8072171,16.1454346 C31.6260179,16.0147412 31.5394473,15.7571752 31.6541736,15.4150346 L33.0946953,10.5715146 L28.369478,11.4990346 C27.9833872,11.5440957 27.7225632,11.4217529 27.6138258,11.2350346 L26.9346953,9.11599462 L23.135391,12.9739146 C22.3129935,13.704202 21.7545856,13.2118447 21.8995649,12.3139146 L23.1506953,6.02367462 L23.5065214,4.30767502 L21.0846084,5.43583462 C20.4837138,5.66943309 20.1813507,5.42303985 19.879391,5.17535462 L16.8950432,0.0185549619 Z" id="path1882"></path>
                    </g>
                </g>
                <g id="Group-3" transform="translate(264.056368, 263.789632) rotate(240.000000) translate(-264.056368, -263.789632) translate(71.006368, 70.739632)">
                    <g id="Conservative_maple_leaf" transform="translate(192.632000, 368.632000) rotate(180.000000) translate(-192.632000, -368.632000) translate(175.472000, 351.472000)">
                        <path d="M16.8950432,0.0185549619 L14.997304,3.32383502 L13.9164345,5.18943462 C13.6194328,5.43280067 13.3173586,5.66728392 12.7265214,5.43759462 L10.3046084,4.30943485 L10.3103475,4.34111462 L10.285478,4.32879485 L10.8459997,7.03215462 L11.8924345,12.2927946 C12.0374144,13.190723 11.4809189,13.683082 10.6585214,12.9527946 L6.85730404,9.09487462 L6.17817361,11.2139146 C6.06943683,11.4006318 5.80861217,11.5229757 5.42252143,11.4779146 L0.697304287,10.5503946 L2.13782603,15.3939146 C2.25255293,15.7360541 2.16598174,15.9936212 1.98478255,16.1243146 L0.018173913,17.0078346 L8.04540995,23.0719188 C8.38176829,23.3149841 8.56309727,23.4656948 8.48609313,24.1260518 L7.80289664,26.2423046 L15.6785385,25.4498315 C15.9919501,25.4300744 16.2532823,25.5444406 16.2508195,25.7179699 L15.7719048,33.746414 L18.0294014,33.7734448 L17.4994455,25.7263396 C17.4960823,25.5183155 17.6957336,25.4147283 18.0398665,25.4517424 L26.0390549,26.2842782 L25.4183718,24.403781 C25.2699165,24.0018865 25.2086514,23.6087892 25.5618207,23.2323627 L33.7738258,17.0289546 L31.8072171,16.1454346 C31.6260179,16.0147412 31.5394473,15.7571752 31.6541736,15.4150346 L33.0946953,10.5715146 L28.369478,11.4990346 C27.9833872,11.5440957 27.7225632,11.4217529 27.6138258,11.2350346 L26.9346953,9.11599462 L23.135391,12.9739146 C22.3129935,13.704202 21.7545856,13.2118447 21.8995649,12.3139146 L23.1506953,6.02367462 L23.5065214,4.30767502 L21.0846084,5.43583462 C20.4837138,5.66943309 20.1813507,5.42303985 19.879391,5.17535462 L16.8950432,0.0185549619 Z" id="path1882"></path>
                    </g>
                    <g id="Conservative_maple_leaf" transform="translate(176.000000, 0.000000)">
                        <path d="M16.8950432,0.0185549619 L14.997304,3.32383502 L13.9164345,5.18943462 C13.6194328,5.43280067 13.3173586,5.66728392 12.7265214,5.43759462 L10.3046084,4.30943485 L10.3103475,4.34111462 L10.285478,4.32879485 L10.8459997,7.03215462 L11.8924345,12.2927946 C12.0374144,13.190723 11.4809189,13.683082 10.6585214,12.9527946 L6.85730404,9.09487462 L6.17817361,11.2139146 C6.06943683,11.4006318 5.80861217,11.5229757 5.42252143,11.4779146 L0.697304287,10.5503946 L2.13782603,15.3939146 C2.25255293,15.7360541 2.16598174,15.9936212 1.98478255,16.1243146 L0.018173913,17.0078346 L8.04540995,23.0719188 C8.38176829,23.3149841 8.56309727,23.4656948 8.48609313,24.1260518 L7.80289664,26.2423046 L15.6785385,25.4498315 C15.9919501,25.4300744 16.2532823,25.5444406 16.2508195,25.7179699 L15.7719048,33.746414 L18.0294014,33.7734448 L17.4994455,25.7263396 C17.4960823,25.5183155 17.6957336,25.4147283 18.0398665,25.4517424 L26.0390549,26.2842782 L25.4183718,24.403781 C25.2699165,24.0018865 25.2086514,23.6087892 25.5618207,23.2323627 L33.7738258,17.0289546 L31.8072171,16.1454346 C31.6260179,16.0147412 31.5394473,15.7571752 31.6541736,15.4150346 L33.0946953,10.5715146 L28.369478,11.4990346 C27.9833872,11.5440957 27.7225632,11.4217529 27.6138258,11.2350346 L26.9346953,9.11599462 L23.135391,12.9739146 C22.3129935,13.704202 21.7545856,13.2118447 21.8995649,12.3139146 L23.1506953,6.02367462 L23.5065214,4.30767502 L21.0846084,5.43583462 C20.4837138,5.66943309 20.1813507,5.42303985 19.879391,5.17535462 L16.8950432,0.0185549619 Z" id="path1882"></path>
                    </g>
                    <g id="Conservative_maple_leaf" transform="translate(368.632000, 193.160000) rotate(90.000000) translate(-368.632000, -193.160000) translate(351.472000, 176.000000)">
                        <path d="M16.8950432,0.0185549619 L14.997304,3.32383502 L13.9164345,5.18943462 C13.6194328,5.43280067 13.3173586,5.66728392 12.7265214,5.43759462 L10.3046084,4.30943485 L10.3103475,4.34111462 L10.285478,4.32879485 L10.8459997,7.03215462 L11.8924345,12.2927946 C12.0374144,13.190723 11.4809189,13.683082 10.6585214,12.9527946 L6.85730404,9.09487462 L6.17817361,11.2139146 C6.06943683,11.4006318 5.80861217,11.5229757 5.42252143,11.4779146 L0.697304287,10.5503946 L2.13782603,15.3939146 C2.25255293,15.7360541 2.16598174,15.9936212 1.98478255,16.1243146 L0.018173913,17.0078346 L8.04540995,23.0719188 C8.38176829,23.3149841 8.56309727,23.4656948 8.48609313,24.1260518 L7.80289664,26.2423046 L15.6785385,25.4498315 C15.9919501,25.4300744 16.2532823,25.5444406 16.2508195,25.7179699 L15.7719048,33.746414 L18.0294014,33.7734448 L17.4994455,25.7263396 C17.4960823,25.5183155 17.6957336,25.4147283 18.0398665,25.4517424 L26.0390549,26.2842782 L25.4183718,24.403781 C25.2699165,24.0018865 25.2086514,23.6087892 25.5618207,23.2323627 L33.7738258,17.0289546 L31.8072171,16.1454346 C31.6260179,16.0147412 31.5394473,15.7571752 31.6541736,15.4150346 L33.0946953,10.5715146 L28.369478,11.4990346 C27.9833872,11.5440957 27.7225632,11.4217529 27.6138258,11.2350346 L26.9346953,9.11599462 L23.135391,12.9739146 C22.3129935,13.704202 21.7545856,13.2118447 21.8995649,12.3139146 L23.1506953,6.02367462 L23.5065214,4.30767502 L21.0846084,5.43583462 C20.4837138,5.66943309 20.1813507,5.42303985 19.879391,5.17535462 L16.8950432,0.0185549619 Z" id="path1882"></path>
                    </g>
                    <g id="Conservative_maple_leaf" transform="translate(17.160000, 193.160000) scale(-1, 1) rotate(90.000000) translate(-17.160000, -193.160000) translate(0.000000, 176.000000)">
                        <path d="M16.8950432,0.0185549619 L14.997304,3.32383502 L13.9164345,5.18943462 C13.6194328,5.43280067 13.3173586,5.66728392 12.7265214,5.43759462 L10.3046084,4.30943485 L10.3103475,4.34111462 L10.285478,4.32879485 L10.8459997,7.03215462 L11.8924345,12.2927946 C12.0374144,13.190723 11.4809189,13.683082 10.6585214,12.9527946 L6.85730404,9.09487462 L6.17817361,11.2139146 C6.06943683,11.4006318 5.80861217,11.5229757 5.42252143,11.4779146 L0.697304287,10.5503946 L2.13782603,15.3939146 C2.25255293,15.7360541 2.16598174,15.9936212 1.98478255,16.1243146 L0.018173913,17.0078346 L8.04540995,23.0719188 C8.38176829,23.3149841 8.56309727,23.4656948 8.48609313,24.1260518 L7.80289664,26.2423046 L15.6785385,25.4498315 C15.9919501,25.4300744 16.2532823,25.5444406 16.2508195,25.7179699 L15.7719048,33.746414 L18.0294014,33.7734448 L17.4994455,25.7263396 C17.4960823,25.5183155 17.6957336,25.4147283 18.0398665,25.4517424 L26.0390549,26.2842782 L25.4183718,24.403781 C25.2699165,24.0018865 25.2086514,23.6087892 25.5618207,23.2323627 L33.7738258,17.0289546 L31.8072171,16.1454346 C31.6260179,16.0147412 31.5394473,15.7571752 31.6541736,15.4150346 L33.0946953,10.5715146 L28.369478,11.4990346 C27.9833872,11.5440957 27.7225632,11.4217529 27.6138258,11.2350346 L26.9346953,9.11599462 L23.135391,12.9739146 C22.3129935,13.704202 21.7545856,13.2118447 21.8995649,12.3139146 L23.1506953,6.02367462 L23.5065214,4.30767502 L21.0846084,5.43583462 C20.4837138,5.66943309 20.1813507,5.42303985 19.879391,5.17535462 L16.8950432,0.0185549619 Z" id="path1882"></path>
                    </g>
                </g>
                <g id="Group" transform="translate(71.104000, 71.104000)">
                    <g id="Conservative_maple_leaf" transform="translate(192.632000, 368.632000) rotate(180.000000) translate(-192.632000, -368.632000) translate(175.472000, 351.472000)">
                        <path d="M16.8950431,0.0173952768 L14.9971763,3.32290245 L13.916234,5.18863024 C13.6192123,5.43201301 13.3171178,5.66651237 12.7262408,5.43680729 L10.3041648,4.30857 L10.3099043,4.34025195 L10.2850331,4.32793133 L10.8455925,7.03147686 L11.8920977,12.2924783 C12.0370874,13.1904684 11.4805545,13.6828612 10.6581017,12.9525237 L6.85662845,9.0943386 L6.17745231,11.2135242 C6.06870821,11.4002542 5.807866,11.5226065 5.42174928,11.4775423 L0.696214123,10.5499586 L2.13683281,15.3938114 C2.25156743,15.7359744 2.16499042,15.9935593 1.98377903,16.1242616 L0.0170380435,17.0078423 L8.04481431,23.0723432 C8.38119529,23.3154252 8.56253647,23.4661462 8.48552716,24.1265486 L7.80228468,26.2429468 L15.6784566,25.4504192 C15.9918893,25.4306608 16.253239,25.5450349 16.2507761,25.7185761 L15.7718292,33.7475719 L18.0294777,33.7746045 L17.4994862,25.7269463 C17.4961226,25.5189079 17.6957874,25.4153137 18.0399435,25.4523303 L26.0396703,26.2849233 L25.4189454,24.4042969 C25.2704801,24.0023748 25.2092109,23.6092505 25.5624039,23.2327981 L33.7749617,17.0289638 L31.8082206,16.1453831 C31.6270092,16.0146807 31.5404328,15.757097 31.6551668,15.4149329 L33.0957855,10.5710801 L28.3702501,11.4986638 C27.9841334,11.543728 27.7232918,11.4213767 27.6145471,11.2346457 L26.935371,9.11546005 L23.1358109,12.9736451 C22.3133581,13.7039827 21.7549126,13.2115915 21.8999017,12.3135998 L23.1511163,6.02292757 L23.5069663,4.30681005 L21.0848903,5.43504717 C20.4839552,5.66866169 20.1815718,5.42225152 19.8795918,5.17454928 L16.8950431,0.0173952768 Z" id="path1882"></path>
                    </g>
                    <g id="Conservative_maple_leaf" transform="translate(176.000000, 0.000000)">
                        <path d="M16.8950431,0.0173952768 L14.9971763,3.32290245 L13.916234,5.18863024 C13.6192123,5.43201301 13.3171178,5.66651237 12.7262408,5.43680729 L10.3041648,4.30857 L10.3099043,4.34025195 L10.2850331,4.32793133 L10.8455925,7.03147686 L11.8920977,12.2924783 C12.0370874,13.1904684 11.4805545,13.6828612 10.6581017,12.9525237 L6.85662845,9.0943386 L6.17745231,11.2135242 C6.06870821,11.4002542 5.807866,11.5226065 5.42174928,11.4775423 L0.696214123,10.5499586 L2.13683281,15.3938114 C2.25156743,15.7359744 2.16499042,15.9935593 1.98377903,16.1242616 L0.0170380435,17.0078423 L8.04481431,23.0723432 C8.38119529,23.3154252 8.56253647,23.4661462 8.48552716,24.1265486 L7.80228468,26.2429468 L15.6784566,25.4504192 C15.9918893,25.4306608 16.253239,25.5450349 16.2507761,25.7185761 L15.7718292,33.7475719 L18.0294777,33.7746045 L17.4994862,25.7269463 C17.4961226,25.5189079 17.6957874,25.4153137 18.0399435,25.4523303 L26.0396703,26.2849233 L25.4189454,24.4042969 C25.2704801,24.0023748 25.2092109,23.6092505 25.5624039,23.2327981 L33.7749617,17.0289638 L31.8082206,16.1453831 C31.6270092,16.0146807 31.5404328,15.757097 31.6551668,15.4149329 L33.0957855,10.5710801 L28.3702501,11.4986638 C27.9841334,11.543728 27.7232918,11.4213767 27.6145471,11.2346457 L26.935371,9.11546005 L23.1358109,12.9736451 C22.3133581,13.7039827 21.7549126,13.2115915 21.8999017,12.3135998 L23.1511163,6.02292757 L23.5069663,4.30681005 L21.0848903,5.43504717 C20.4839552,5.66866169 20.1815718,5.42225152 19.8795918,5.17454928 L16.8950431,0.0173952768 Z" id="path1882"></path>
                    </g>
                    <g id="Conservative_maple_leaf" transform="translate(368.632000, 193.160000) rotate(90.000000) translate(-368.632000, -193.160000) translate(351.472000, 176.000000)">
                        <path d="M16.8950431,0.0173952768 L14.9971763,3.32290245 L13.916234,5.18863024 C13.6192123,5.43201301 13.3171178,5.66651237 12.7262408,5.43680729 L10.3041648,4.30857 L10.3099043,4.34025195 L10.2850331,4.32793133 L10.8455925,7.03147686 L11.8920977,12.2924783 C12.0370874,13.1904684 11.4805545,13.6828612 10.6581017,12.9525237 L6.85662845,9.0943386 L6.17745231,11.2135242 C6.06870821,11.4002542 5.807866,11.5226065 5.42174928,11.4775423 L0.696214123,10.5499586 L2.13683281,15.3938114 C2.25156743,15.7359744 2.16499042,15.9935593 1.98377903,16.1242616 L0.0170380435,17.0078423 L8.04481431,23.0723432 C8.38119529,23.3154252 8.56253647,23.4661462 8.48552716,24.1265486 L7.80228468,26.2429468 L15.6784566,25.4504192 C15.9918893,25.4306608 16.253239,25.5450349 16.2507761,25.7185761 L15.7718292,33.7475719 L18.0294777,33.7746045 L17.4994862,25.7269463 C17.4961226,25.5189079 17.6957874,25.4153137 18.0399435,25.4523303 L26.0396703,26.2849233 L25.4189454,24.4042969 C25.2704801,24.0023748 25.2092109,23.6092505 25.5624039,23.2327981 L33.7749617,17.0289638 L31.8082206,16.1453831 C31.6270092,16.0146807 31.5404328,15.757097 31.6551668,15.4149329 L33.0957855,10.5710801 L28.3702501,11.4986638 C27.9841334,11.543728 27.7232918,11.4213767 27.6145471,11.2346457 L26.935371,9.11546005 L23.1358109,12.9736451 C22.3133581,13.7039827 21.7549126,13.2115915 21.8999017,12.3135998 L23.1511163,6.02292757 L23.5069663,4.30681005 L21.0848903,5.43504717 C20.4839552,5.66866169 20.1815718,5.42225152 19.8795918,5.17454928 L16.8950431,0.0173952768 Z" id="path1882"></path>
                    </g>
                    <g id="Conservative_maple_leaf" transform="translate(17.160000, 193.160000) scale(-1, 1) rotate(90.000000) translate(-17.160000, -193.160000) translate(0.000000, 176.000000)">
                        <path d="M16.8950431,0.0173952768 L14.9971763,3.32290245 L13.916234,5.18863024 C13.6192123,5.43201301 13.3171178,5.66651237 12.7262408,5.43680729 L10.3041648,4.30857 L10.3099043,4.34025195 L10.2850331,4.32793133 L10.8455925,7.03147686 L11.8920977,12.2924783 C12.0370874,13.1904684 11.4805545,13.6828612 10.6581017,12.9525237 L6.85662845,9.0943386 L6.17745231,11.2135242 C6.06870821,11.4002542 5.807866,11.5226065 5.42174928,11.4775423 L0.696214123,10.5499586 L2.13683281,15.3938114 C2.25156743,15.7359744 2.16499042,15.9935593 1.98377903,16.1242616 L0.0170380435,17.0078423 L8.04481431,23.0723432 C8.38119529,23.3154252 8.56253647,23.4661462 8.48552716,24.1265486 L7.80228468,26.2429468 L15.6784566,25.4504192 C15.9918893,25.4306608 16.253239,25.5450349 16.2507761,25.7185761 L15.7718292,33.7475719 L18.0294777,33.7746045 L17.4994862,25.7269463 C17.4961226,25.5189079 17.6957874,25.4153137 18.0399435,25.4523303 L26.0396703,26.2849233 L25.4189454,24.4042969 C25.2704801,24.0023748 25.2092109,23.6092505 25.5624039,23.2327981 L33.7749617,17.0289638 L31.8082206,16.1453831 C31.6270092,16.0146807 31.5404328,15.757097 31.6551668,15.4149329 L33.0957855,10.5710801 L28.3702501,11.4986638 C27.9841334,11.543728 27.7232918,11.4213767 27.6145471,11.2346457 L26.935371,9.11546005 L23.1358109,12.9736451 C22.3133581,13.7039827 21.7549126,13.2115915 21.8999017,12.3135998 L23.1511163,6.02292757 L23.5069663,4.30681005 L21.0848903,5.43504717 C20.4839552,5.66866169 20.1815718,5.42225152 19.8795918,5.17454928 L16.8950431,0.0173952768 Z" id="path1882"></path>
                    </g>
                </g>
            </g>
        </g>
    </g>
</svg>