<?xml version="1.0" encoding="UTF-8"?>
<svg width="586px" height="586px" viewBox="0 0 586 586" version="1.1" xmlns="http://www.w3.org/2000/svg" xmlns:xlink="http://www.w3.org/1999/xlink">
    <!-- Generator: Sketch 44.1 (41455) - http://www.bohemiancoding.com/sketch -->
    <title>net-1</title>
    <desc>Created with Sketch.</desc>
    <defs></defs>
    <g id="Page-1" stroke="none" stroke-width="1" fill="none" fill-rule="evenodd">
        <g id="Desktop-HD" transform="translate(-427.000000, -218.000000)" fill-rule="nonzero" fill="#FFFFFF">
            <g id="net-1" transform="translate(320.000000, 111.000000)">
                <g id="Group-2" transform="translate(399.681261, 400.085406) rotate(120.000000) translate(-399.681261, -400.085406) translate(107.181261, 107.585406)">
                    <g id="Conservative_maple_leaf" transform="translate(291.866667, 558.533333) rotate(180.000000) translate(-291.866667, -558.533333) translate(265.866667, 532.533333)">
                        <path d="M25.5985503,0.0281135787 L22.7231879,5.03611366 L21.0855068,7.86277973 C20.6355042,8.23151616 20.1778161,8.58679381 19.2826082,8.23877973 L15.613043,6.52944674 L15.6217387,6.5774464 L15.5840575,6.55878007 L16.4333329,10.6547797 L18.0188401,18.6254464 C18.2385067,19.9859439 17.3953317,20.7319424 16.1492749,19.6254464 L10.3898546,13.7801131 L9.3608691,16.9907797 C9.19611641,17.2736845 8.80092754,17.4590541 8.21594157,17.3907797 L1.05652165,15.9854464 L3.23913034,23.3241131 C3.41295898,23.8425062 3.28179052,24.2327595 3.00724628,24.4307797 L0.0275362319,25.7694464 L12.1900151,34.9574528 C12.6996489,35.3257335 12.9743898,35.554083 12.8577169,36.554624 L11.8225707,39.7610675 L23.7553614,38.5603507 C24.2302275,38.5304158 24.6261853,38.7036979 24.6224538,38.966621 L23.8968255,51.1309303 L27.3172749,51.1718861 L26.5143114,38.9793024 C26.5092155,38.6641143 26.8117176,38.5071642 27.3331311,38.5632461 L39.4531135,39.8246639 L38.5126845,36.9754257 C38.2877523,36.3664947 38.1949264,35.7708928 38.7300313,35.2005495 L51.1724633,25.8014464 L48.1927532,24.4627797 C47.9182089,24.2647595 47.7870414,23.8745079 47.9608691,23.3561131 L50.1434778,16.0174464 L42.9840575,17.4227797 C42.3990715,17.4910541 42.0038836,17.3056862 41.83913,17.0227797 L40.8101445,13.8121131 L35.0536227,19.6574464 C33.8075659,20.7639424 32.9614933,20.0179465 33.181159,18.6574464 L35.0768111,9.12677973 L35.6159416,6.52678033 L31.9463763,8.23611307 C31.03593,8.59005013 30.5778041,8.21672704 30.1202894,7.8414464 L25.5985503,0.0281135787 Z" id="path1882"></path>
                    </g>
                    <g id="Conservative_maple_leaf" transform="translate(266.666667, 0.000000)">
                        <path d="M25.5985503,0.0281135787 L22.7231879,5.03611366 L21.0855068,7.86277973 C20.6355042,8.23151616 20.1778161,8.58679381 19.2826082,8.23877973 L15.613043,6.52944674 L15.6217387,6.5774464 L15.5840575,6.55878007 L16.4333329,10.6547797 L18.0188401,18.6254464 C18.2385067,19.9859439 17.3953317,20.7319424 16.1492749,19.6254464 L10.3898546,13.7801131 L9.3608691,16.9907797 C9.19611641,17.2736845 8.80092754,17.4590541 8.21594157,17.3907797 L1.05652165,15.9854464 L3.23913034,23.3241131 C3.41295898,23.8425062 3.28179052,24.2327595 3.00724628,24.4307797 L0.0275362319,25.7694464 L12.1900151,34.9574528 C12.6996489,35.3257335 12.9743898,35.554083 12.8577169,36.554624 L11.8225707,39.7610675 L23.7553614,38.5603507 C24.2302275,38.5304158 24.6261853,38.7036979 24.6224538,38.966621 L23.8968255,51.1309303 L27.3172749,51.1718861 L26.5143114,38.9793024 C26.5092155,38.6641143 26.8117176,38.5071642 27.3331311,38.5632461 L39.4531135,39.8246639 L38.5126845,36.9754257 C38.2877523,36.3664947 38.1949264,35.7708928 38.7300313,35.2005495 L51.1724633,25.8014464 L48.1927532,24.4627797 C47.9182089,24.2647595 47.7870414,23.8745079 47.9608691,23.3561131 L50.1434778,16.0174464 L42.9840575,17.4227797 C42.3990715,17.4910541 42.0038836,17.3056862 41.83913,17.0227797 L40.8101445,13.8121131 L35.0536227,19.6574464 C33.8075659,20.7639424 32.9614933,20.0179465 33.181159,18.6574464 L35.0768111,9.12677973 L35.6159416,6.52678033 L31.9463763,8.23611307 C31.03593,8.59005013 30.5778041,8.21672704 30.1202894,7.8414464 L25.5985503,0.0281135787 Z" id="path1882"></path>
                    </g>
                    <g id="Conservative_maple_leaf" transform="translate(558.533333, 292.666667) rotate(90.000000) translate(-558.533333, -292.666667) translate(532.533333, 266.666667)">
                        <path d="M25.5985503,0.0281135787 L22.7231879,5.03611366 L21.0855068,7.86277973 C20.6355042,8.23151616 20.1778161,8.58679381 19.2826082,8.23877973 L15.613043,6.52944674 L15.6217387,6.5774464 L15.5840575,6.55878007 L16.4333329,10.6547797 L18.0188401,18.6254464 C18.2385067,19.9859439 17.3953317,20.7319424 16.1492749,19.6254464 L10.3898546,13.7801131 L9.3608691,16.9907797 C9.19611641,17.2736845 8.80092754,17.4590541 8.21594157,17.3907797 L1.05652165,15.9854464 L3.23913034,23.3241131 C3.41295898,23.8425062 3.28179052,24.2327595 3.00724628,24.4307797 L0.0275362319,25.7694464 L12.1900151,34.9574528 C12.6996489,35.3257335 12.9743898,35.554083 12.8577169,36.554624 L11.8225707,39.7610675 L23.7553614,38.5603507 C24.2302275,38.5304158 24.6261853,38.7036979 24.6224538,38.966621 L23.8968255,51.1309303 L27.3172749,51.1718861 L26.5143114,38.9793024 C26.5092155,38.6641143 26.8117176,38.5071642 27.3331311,38.5632461 L39.4531135,39.8246639 L38.5126845,36.9754257 C38.2877523,36.3664947 38.1949264,35.7708928 38.7300313,35.2005495 L51.1724633,25.8014464 L48.1927532,24.4627797 C47.9182089,24.2647595 47.7870414,23.8745079 47.9608691,23.3561131 L50.1434778,16.0174464 L42.9840575,17.4227797 C42.3990715,17.4910541 42.0038836,17.3056862 41.83913,17.0227797 L40.8101445,13.8121131 L35.0536227,19.6574464 C33.8075659,20.7639424 32.9614933,20.0179465 33.181159,18.6574464 L35.0768111,9.12677973 L35.6159416,6.52678033 L31.9463763,8.23611307 C31.03593,8.59005013 30.5778041,8.21672704 30.1202894,7.8414464 L25.5985503,0.0281135787 Z" id="path1882"></path>
                    </g>
                    <g id="Conservative_maple_leaf" transform="translate(26.000000, 292.666667) scale(-1, 1) rotate(90.000000) translate(-26.000000, -292.666667) translate(0.000000, 266.666667)">
                        <path d="M25.5985503,0.0281135787 L22.7231879,5.03611366 L21.0855068,7.86277973 C20.6355042,8.23151616 20.1778161,8.58679381 19.2826082,8.23877973 L15.613043,6.52944674 L15.6217387,6.5774464 L15.5840575,6.55878007 L16.4333329,10.6547797 L18.0188401,18.6254464 C18.2385067,19.9859439 17.3953317,20.7319424 16.1492749,19.6254464 L10.3898546,13.7801131 L9.3608691,16.9907797 C9.19611641,17.2736845 8.80092754,17.4590541 8.21594157,17.3907797 L1.05652165,15.9854464 L3.23913034,23.3241131 C3.41295898,23.8425062 3.28179052,24.2327595 3.00724628,24.4307797 L0.0275362319,25.7694464 L12.1900151,34.9574528 C12.6996489,35.3257335 12.9743898,35.554083 12.8577169,36.554624 L11.8225707,39.7610675 L23.7553614,38.5603507 C24.2302275,38.5304158 24.6261853,38.7036979 24.6224538,38.966621 L23.8968255,51.1309303 L27.3172749,51.1718861 L26.5143114,38.9793024 C26.5092155,38.6641143 26.8117176,38.5071642 27.3331311,38.5632461 L39.4531135,39.8246639 L38.5126845,36.9754257 C38.2877523,36.3664947 38.1949264,35.7708928 38.7300313,35.2005495 L51.1724633,25.8014464 L48.1927532,24.4627797 C47.9182089,24.2647595 47.7870414,23.8745079 47.9608691,23.3561131 L50.1434778,16.0174464 L42.9840575,17.4227797 C42.3990715,17.4910541 42.0038836,17.3056862 41.83913,17.0227797 L40.8101445,13.8121131 L35.0536227,19.6574464 C33.8075659,20.7639424 32.9614933,20.0179465 33.181159,18.6574464 L35.0768111,9.12677973 L35.6159416,6.52678033 L31.9463763,8.23611307 C31.03593,8.59005013 30.5778041,8.21672704 30.1202894,7.8414464 L25.5985503,0.0281135787 Z" id="path1882"></path>
                    </g>
                </g>
                <g id="Group-3" transform="translate(400.085406, 399.681261) rotate(240.000000) translate(-400.085406, -399.681261) translate(107.585406, 107.181261)">
                    <g id="Conservative_maple_leaf" transform="translate(291.866667, 558.533333) rotate(180.000000) translate(-291.866667, -558.533333) translate(265.866667, 532.533333)">
                        <path d="M25.5985503,0.0281135787 L22.7231879,5.03611366 L21.0855068,7.86277973 C20.6355042,8.23151616 20.1778161,8.58679381 19.2826082,8.23877973 L15.613043,6.52944674 L15.6217387,6.5774464 L15.5840575,6.55878007 L16.4333329,10.6547797 L18.0188401,18.6254464 C18.2385067,19.9859439 17.3953317,20.7319424 16.1492749,19.6254464 L10.3898546,13.7801131 L9.3608691,16.9907797 C9.19611641,17.2736845 8.80092754,17.4590541 8.21594157,17.3907797 L1.05652165,15.9854464 L3.23913034,23.3241131 C3.41295898,23.8425062 3.28179052,24.2327595 3.00724628,24.4307797 L0.0275362319,25.7694464 L12.1900151,34.9574528 C12.6996489,35.3257335 12.9743898,35.554083 12.8577169,36.554624 L11.8225707,39.7610675 L23.7553614,38.5603507 C24.2302275,38.5304158 24.6261853,38.7036979 24.6224538,38.966621 L23.8968255,51.1309303 L27.3172749,51.1718861 L26.5143114,38.9793024 C26.5092155,38.6641143 26.8117176,38.5071642 27.3331311,38.5632461 L39.4531135,39.8246639 L38.5126845,36.9754257 C38.2877523,36.3664947 38.1949264,35.7708928 38.7300313,35.2005495 L51.1724633,25.8014464 L48.1927532,24.4627797 C47.9182089,24.2647595 47.7870414,23.8745079 47.9608691,23.3561131 L50.1434778,16.0174464 L42.9840575,17.4227797 C42.3990715,17.4910541 42.0038836,17.3056862 41.83913,17.0227797 L40.8101445,13.8121131 L35.0536227,19.6574464 C33.8075659,20.7639424 32.9614933,20.0179465 33.181159,18.6574464 L35.0768111,9.12677973 L35.6159416,6.52678033 L31.9463763,8.23611307 C31.03593,8.59005013 30.5778041,8.21672704 30.1202894,7.8414464 L25.5985503,0.0281135787 Z" id="path1882"></path>
                    </g>
                    <g id="Conservative_maple_leaf" transform="translate(266.666667, 0.000000)">
                        <path d="M25.5985503,0.0281135787 L22.7231879,5.03611366 L21.0855068,7.86277973 C20.6355042,8.23151616 20.1778161,8.58679381 19.2826082,8.23877973 L15.613043,6.52944674 L15.6217387,6.5774464 L15.5840575,6.55878007 L16.4333329,10.6547797 L18.0188401,18.6254464 C18.2385067,19.9859439 17.3953317,20.7319424 16.1492749,19.6254464 L10.3898546,13.7801131 L9.3608691,16.9907797 C9.19611641,17.2736845 8.80092754,17.4590541 8.21594157,17.3907797 L1.05652165,15.9854464 L3.23913034,23.3241131 C3.41295898,23.8425062 3.28179052,24.2327595 3.00724628,24.4307797 L0.0275362319,25.7694464 L12.1900151,34.9574528 C12.6996489,35.3257335 12.9743898,35.554083 12.8577169,36.554624 L11.8225707,39.7610675 L23.7553614,38.5603507 C24.2302275,38.5304158 24.6261853,38.7036979 24.6224538,38.966621 L23.8968255,51.1309303 L27.3172749,51.1718861 L26.5143114,38.9793024 C26.5092155,38.6641143 26.8117176,38.5071642 27.3331311,38.5632461 L39.4531135,39.8246639 L38.5126845,36.9754257 C38.2877523,36.3664947 38.1949264,35.7708928 38.7300313,35.2005495 L51.1724633,25.8014464 L48.1927532,24.4627797 C47.9182089,24.2647595 47.7870414,23.8745079 47.9608691,23.3561131 L50.1434778,16.0174464 L42.9840575,17.4227797 C42.3990715,17.4910541 42.0038836,17.3056862 41.83913,17.0227797 L40.8101445,13.8121131 L35.0536227,19.6574464 C33.8075659,20.7639424 32.9614933,20.0179465 33.181159,18.6574464 L35.0768111,9.12677973 L35.6159416,6.52678033 L31.9463763,8.23611307 C31.03593,8.59005013 30.5778041,8.21672704 30.1202894,7.8414464 L25.5985503,0.0281135787 Z" id="path1882"></path>
                    </g>
                    <g id="Conservative_maple_leaf" transform="translate(558.533333, 292.666667) rotate(90.000000) translate(-558.533333, -292.666667) translate(532.533333, 266.666667)">
                        <path d="M25.5985503,0.0281135787 L22.7231879,5.03611366 L21.0855068,7.86277973 C20.6355042,8.23151616 20.1778161,8.58679381 19.2826082,8.23877973 L15.613043,6.52944674 L15.6217387,6.5774464 L15.5840575,6.55878007 L16.4333329,10.6547797 L18.0188401,18.6254464 C18.2385067,19.9859439 17.3953317,20.7319424 16.1492749,19.6254464 L10.3898546,13.7801131 L9.3608691,16.9907797 C9.19611641,17.2736845 8.80092754,17.4590541 8.21594157,17.3907797 L1.05652165,15.9854464 L3.23913034,23.3241131 C3.41295898,23.8425062 3.28179052,24.2327595 3.00724628,24.4307797 L0.0275362319,25.7694464 L12.1900151,34.9574528 C12.6996489,35.3257335 12.9743898,35.554083 12.8577169,36.554624 L11.8225707,39.7610675 L23.7553614,38.5603507 C24.2302275,38.5304158 24.6261853,38.7036979 24.6224538,38.966621 L23.8968255,51.1309303 L27.3172749,51.1718861 L26.5143114,38.9793024 C26.5092155,38.6641143 26.8117176,38.5071642 27.3331311,38.5632461 L39.4531135,39.8246639 L38.5126845,36.9754257 C38.2877523,36.3664947 38.1949264,35.7708928 38.7300313,35.2005495 L51.1724633,25.8014464 L48.1927532,24.4627797 C47.9182089,24.2647595 47.7870414,23.8745079 47.9608691,23.3561131 L50.1434778,16.0174464 L42.9840575,17.4227797 C42.3990715,17.4910541 42.0038836,17.3056862 41.83913,17.0227797 L40.8101445,13.8121131 L35.0536227,19.6574464 C33.8075659,20.7639424 32.9614933,20.0179465 33.181159,18.6574464 L35.0768111,9.12677973 L35.6159416,6.52678033 L31.9463763,8.23611307 C31.03593,8.59005013 30.5778041,8.21672704 30.1202894,7.8414464 L25.5985503,0.0281135787 Z" id="path1882"></path>
                    </g>
                    <g id="Conservative_maple_leaf" transform="translate(26.000000, 292.666667) scale(-1, 1) rotate(90.000000) translate(-26.000000, -292.666667) translate(0.000000, 266.666667)">
                        <path d="M25.5985503,0.0281135787 L22.7231879,5.03611366 L21.0855068,7.86277973 C20.6355042,8.23151616 20.1778161,8.58679381 19.2826082,8.23877973 L15.613043,6.52944674 L15.6217387,6.5774464 L15.5840575,6.55878007 L16.4333329,10.6547797 L18.0188401,18.6254464 C18.2385067,19.9859439 17.3953317,20.7319424 16.1492749,19.6254464 L10.3898546,13.7801131 L9.3608691,16.9907797 C9.19611641,17.2736845 8.80092754,17.4590541 8.21594157,17.3907797 L1.05652165,15.9854464 L3.23913034,23.3241131 C3.41295898,23.8425062 3.28179052,24.2327595 3.00724628,24.4307797 L0.0275362319,25.7694464 L12.1900151,34.9574528 C12.6996489,35.3257335 12.9743898,35.554083 12.8577169,36.554624 L11.8225707,39.7610675 L23.7553614,38.5603507 C24.2302275,38.5304158 24.6261853,38.7036979 24.6224538,38.966621 L23.8968255,51.1309303 L27.3172749,51.1718861 L26.5143114,38.9793024 C26.5092155,38.6641143 26.8117176,38.5071642 27.3331311,38.5632461 L39.4531135,39.8246639 L38.5126845,36.9754257 C38.2877523,36.3664947 38.1949264,35.7708928 38.7300313,35.2005495 L51.1724633,25.8014464 L48.1927532,24.4627797 C47.9182089,24.2647595 47.7870414,23.8745079 47.9608691,23.3561131 L50.1434778,16.0174464 L42.9840575,17.4227797 C42.3990715,17.4910541 42.0038836,17.3056862 41.83913,17.0227797 L40.8101445,13.8121131 L35.0536227,19.6574464 C33.8075659,20.7639424 32.9614933,20.0179465 33.181159,18.6574464 L35.0768111,9.12677973 L35.6159416,6.52678033 L31.9463763,8.23611307 C31.03593,8.59005013 30.5778041,8.21672704 30.1202894,7.8414464 L25.5985503,0.0281135787 Z" id="path1882"></path>
                    </g>
                </g>
                <g id="Group" transform="translate(107.733333, 107.733333)">
                    <g id="Conservative_maple_leaf" transform="translate(291.866667, 558.533333) rotate(180.000000) translate(-291.866667, -558.533333) translate(265.866667, 532.533333)">
                        <path d="M25.5985502,0.02635648 L22.7229943,5.03470068 L21.085203,7.86156097 C20.6351701,8.23032274 20.1774512,8.5856248 19.2821831,8.23758681 L15.6123709,6.52813637 L15.6210671,6.57613932 L15.5833834,6.55747171 L16.432716,10.6537528 L18.0183299,18.6249672 C18.2380113,19.9855581 17.3947795,20.7316079 16.1486389,19.6250359 L10.388831,13.7793009 L9.35977622,16.9901882 C9.19501244,17.2731124 8.79979697,17.4584947 8.21477163,17.3902157 L1.05486988,15.9847858 L3.23762547,23.3239567 C3.4114658,23.8423855 3.28028851,24.2326655 3.0057258,24.4306994 L0.0258152174,25.7694581 L12.1891126,34.9580958 C12.6987807,35.3264018 12.9735401,35.554767 12.8568593,36.5553767 L11.8216435,39.7620406 L23.7552373,38.5612413 C24.2301353,38.5313043 24.6261198,38.7045983 24.622388,38.9675395 L23.8967109,51.1326847 L27.3173905,51.1736432 L26.514373,38.9802217 C26.5092767,38.665012 26.8117991,38.5080511 27.3332478,38.5641368 L39.4540458,39.8256413 L38.5135536,36.9762074 C38.2886062,36.3672345 38.195774,35.7715917 38.730915,35.2012092 L51.1741843,25.8014603 L48.1942737,24.4627016 C47.919711,24.2646677 47.7885346,23.8743894 47.962374,23.3559589 L50.1451296,16.016788 L42.9852275,17.4222179 C42.4002021,17.4904969 42.0049876,17.3051163 41.8402229,17.0221904 L40.8111681,13.8113031 L35.054259,19.6570381 C33.8081183,20.7636101 32.9619888,20.0175629 33.1816692,18.6569694 L35.0774489,9.12564783 L35.6166157,6.52546977 L31.9468035,8.23491996 C31.0362958,8.58888135 30.5781391,8.2155326 30.1205936,7.84022618 L25.5985502,0.02635648 Z" id="path1882"></path>
                    </g>
                    <g id="Conservative_maple_leaf" transform="translate(266.666667, 0.000000)">
                        <path d="M25.5985502,0.02635648 L22.7229943,5.03470068 L21.085203,7.86156097 C20.6351701,8.23032274 20.1774512,8.5856248 19.2821831,8.23758681 L15.6123709,6.52813637 L15.6210671,6.57613932 L15.5833834,6.55747171 L16.432716,10.6537528 L18.0183299,18.6249672 C18.2380113,19.9855581 17.3947795,20.7316079 16.1486389,19.6250359 L10.388831,13.7793009 L9.35977622,16.9901882 C9.19501244,17.2731124 8.79979697,17.4584947 8.21477163,17.3902157 L1.05486988,15.9847858 L3.23762547,23.3239567 C3.4114658,23.8423855 3.28028851,24.2326655 3.0057258,24.4306994 L0.0258152174,25.7694581 L12.1891126,34.9580958 C12.6987807,35.3264018 12.9735401,35.554767 12.8568593,36.5553767 L11.8216435,39.7620406 L23.7552373,38.5612413 C24.2301353,38.5313043 24.6261198,38.7045983 24.622388,38.9675395 L23.8967109,51.1326847 L27.3173905,51.1736432 L26.514373,38.9802217 C26.5092767,38.665012 26.8117991,38.5080511 27.3332478,38.5641368 L39.4540458,39.8256413 L38.5135536,36.9762074 C38.2886062,36.3672345 38.195774,35.7715917 38.730915,35.2012092 L51.1741843,25.8014603 L48.1942737,24.4627016 C47.919711,24.2646677 47.7885346,23.8743894 47.962374,23.3559589 L50.1451296,16.016788 L42.9852275,17.4222179 C42.4002021,17.4904969 42.0049876,17.3051163 41.8402229,17.0221904 L40.8111681,13.8113031 L35.054259,19.6570381 C33.8081183,20.7636101 32.9619888,20.0175629 33.1816692,18.6569694 L35.0774489,9.12564783 L35.6166157,6.52546977 L31.9468035,8.23491996 C31.0362958,8.58888135 30.5781391,8.2155326 30.1205936,7.84022618 L25.5985502,0.02635648 Z" id="path1882"></path>
                    </g>
                    <g id="Conservative_maple_leaf" transform="translate(558.533333, 292.666667) rotate(90.000000) translate(-558.533333, -292.666667) translate(532.533333, 266.666667)">
                        <path d="M25.5985502,0.02635648 L22.7229943,5.03470068 L21.085203,7.86156097 C20.6351701,8.23032274 20.1774512,8.5856248 19.2821831,8.23758681 L15.6123709,6.52813637 L15.6210671,6.57613932 L15.5833834,6.55747171 L16.432716,10.6537528 L18.0183299,18.6249672 C18.2380113,19.9855581 17.3947795,20.7316079 16.1486389,19.6250359 L10.388831,13.7793009 L9.35977622,16.9901882 C9.19501244,17.2731124 8.79979697,17.4584947 8.21477163,17.3902157 L1.05486988,15.9847858 L3.23762547,23.3239567 C3.4114658,23.8423855 3.28028851,24.2326655 3.0057258,24.4306994 L0.0258152174,25.7694581 L12.1891126,34.9580958 C12.6987807,35.3264018 12.9735401,35.554767 12.8568593,36.5553767 L11.8216435,39.7620406 L23.7552373,38.5612413 C24.2301353,38.5313043 24.6261198,38.7045983 24.622388,38.9675395 L23.8967109,51.1326847 L27.3173905,51.1736432 L26.514373,38.9802217 C26.5092767,38.665012 26.8117991,38.5080511 27.3332478,38.5641368 L39.4540458,39.8256413 L38.5135536,36.9762074 C38.2886062,36.3672345 38.195774,35.7715917 38.730915,35.2012092 L51.1741843,25.8014603 L48.1942737,24.4627016 C47.919711,24.2646677 47.7885346,23.8743894 47.962374,23.3559589 L50.1451296,16.016788 L42.9852275,17.4222179 C42.4002021,17.4904969 42.0049876,17.3051163 41.8402229,17.0221904 L40.8111681,13.8113031 L35.054259,19.6570381 C33.8081183,20.7636101 32.9619888,20.0175629 33.1816692,18.6569694 L35.0774489,9.12564783 L35.6166157,6.52546977 L31.9468035,8.23491996 C31.0362958,8.58888135 30.5781391,8.2155326 30.1205936,7.84022618 L25.5985502,0.02635648 Z" id="path1882"></path>
                    </g>
                    <g id="Conservative_maple_leaf" transform="translate(26.000000, 292.666667) scale(-1, 1) rotate(90.000000) translate(-26.000000, -292.666667) translate(0.000000, 266.666667)">
                        <path d="M25.5985502,0.02635648 L22.7229943,5.03470068 L21.085203,7.86156097 C20.6351701,8.23032274 20.1774512,8.5856248 19.2821831,8.23758681 L15.6123709,6.52813637 L15.6210671,6.57613932 L15.5833834,6.55747171 L16.432716,10.6537528 L18.0183299,18.6249672 C18.2380113,19.9855581 17.3947795,20.7316079 16.1486389,19.6250359 L10.388831,13.7793009 L9.35977622,16.9901882 C9.19501244,17.2731124 8.79979697,17.4584947 8.21477163,17.3902157 L1.05486988,15.9847858 L3.23762547,23.3239567 C3.4114658,23.8423855 3.28028851,24.2326655 3.0057258,24.4306994 L0.0258152174,25.7694581 L12.1891126,34.9580958 C12.6987807,35.3264018 12.9735401,35.554767 12.8568593,36.5553767 L11.8216435,39.7620406 L23.7552373,38.5612413 C24.2301353,38.5313043 24.6261198,38.7045983 24.622388,38.9675395 L23.8967109,51.1326847 L27.3173905,51.1736432 L26.514373,38.9802217 C26.5092767,38.665012 26.8117991,38.5080511 27.3332478,38.5641368 L39.4540458,39.8256413 L38.5135536,36.9762074 C38.2886062,36.3672345 38.195774,35.7715917 38.730915,35.2012092 L51.1741843,25.8014603 L48.1942737,24.4627016 C47.919711,24.2646677 47.7885346,23.8743894 47.962374,23.3559589 L50.1451296,16.016788 L42.9852275,17.4222179 C42.4002021,17.4904969 42.0049876,17.3051163 41.8402229,17.0221904 L40.8111681,13.8113031 L35.054259,19.6570381 C33.8081183,20.7636101 32.9619888,20.0175629 33.1816692,18.6569694 L35.0774489,9.12564783 L35.6166157,6.52546977 L31.9468035,8.23491996 C31.0362958,8.58888135 30.5781391,8.2155326 30.1205936,7.84022618 L25.5985502,0.02635648 Z" id="path1882"></path>
                    </g>
                </g>
            </g>
        </g>
    </g>
</svg>