<?xml version="1.0" encoding="UTF-8"?>
<svg width="194px" height="194px" viewBox="0 0 194 194" version="1.1" xmlns="http://www.w3.org/2000/svg" xmlns:xlink="http://www.w3.org/1999/xlink">
    <!-- Generator: Sketch 44.1 (41455) - http://www.bohemiancoding.com/sketch -->
    <title>net-3</title>
    <desc>Created with Sketch.</desc>
    <defs></defs>
    <g id="Page-1" stroke="none" stroke-width="1" fill="none" fill-rule="evenodd">
        <g id="Desktop-HD" transform="translate(-623.000000, -414.000000)" fill-rule="nonzero" fill="#FFFFFF">
            <g id="net-3" transform="translate(720.000000, 511.000000) rotate(30.000000) translate(-720.000000, -511.000000) translate(588.000000, 379.000000)">
                <g id="Group-2" transform="translate(131.894816, 132.028184) rotate(120.000000) translate(-131.894816, -132.028184) translate(35.369816, 35.503184)">
                    <g id="Conservative_maple_leaf" transform="translate(96.316000, 184.316000) rotate(180.000000) translate(-96.316000, -184.316000) translate(87.736000, 175.736000)">
                        <path d="M8.44752159,0.00927748096 L7.49865202,1.66191751 L6.95821724,2.59471731 C6.8097164,2.71640033 6.65867932,2.83364196 6.36326072,2.71879731 L5.15230419,2.15471742 L5.15517376,2.17055731 L5.14273898,2.16439742 L5.42299985,3.51607731 L5.94621724,6.14639731 C6.0187072,6.59536148 5.74045946,6.84154099 5.32926072,6.47639731 L3.42865202,4.54743731 L3.0890868,5.60695731 C3.03471841,5.70031588 2.90430609,5.76148785 2.71126072,5.73895731 L0.348652143,5.27519731 L1.06891301,7.69695731 C1.12627646,7.86802706 1.08299087,7.99681062 0.992391274,8.06215731 L0.00908695652,8.50391731 L4.02270497,11.5359594 C4.19088415,11.6574921 4.28154863,11.7328474 4.24304657,12.0630259 L3.90144832,13.1211523 L7.83926926,12.7249157 C7.99597507,12.7150372 8.12664114,12.7722203 8.12540975,12.8589849 L7.88595242,16.873207 L9.01470072,16.8867224 L8.74972277,12.8631698 C8.74804113,12.7591577 8.8478668,12.7073642 9.01993327,12.7258712 L13.0195275,13.1421391 L12.7091859,12.2018905 C12.6349583,12.0009433 12.6043257,11.8043946 12.7809103,11.6161814 L16.8869129,8.51447731 L15.9036085,8.07271731 C15.8130089,8.00737062 15.7697237,7.87858762 15.8270868,7.70751731 L16.5473477,5.28575731 L14.184739,5.74951731 C13.9916936,5.77204785 13.8612816,5.71087644 13.8069129,5.61751731 L13.4673477,4.55799731 L11.5676955,6.48695731 C11.1564968,6.85210099 10.8772928,6.60592233 10.9497825,6.15695731 L11.5753477,3.01183731 L11.7532607,2.15383751 L10.5423042,2.71791731 C10.2418569,2.83471654 10.0906753,2.71151992 9.9396955,2.58767731 L8.44752159,0.00927748096 Z" id="path1882"></path>
                    </g>
                    <g id="Conservative_maple_leaf" transform="translate(88.000000, 0.000000)">
                        <path d="M8.44752159,0.00927748096 L7.49865202,1.66191751 L6.95821724,2.59471731 C6.8097164,2.71640033 6.65867932,2.83364196 6.36326072,2.71879731 L5.15230419,2.15471742 L5.15517376,2.17055731 L5.14273898,2.16439742 L5.42299985,3.51607731 L5.94621724,6.14639731 C6.0187072,6.59536148 5.74045946,6.84154099 5.32926072,6.47639731 L3.42865202,4.54743731 L3.0890868,5.60695731 C3.03471841,5.70031588 2.90430609,5.76148785 2.71126072,5.73895731 L0.348652143,5.27519731 L1.06891301,7.69695731 C1.12627646,7.86802706 1.08299087,7.99681062 0.992391274,8.06215731 L0.00908695652,8.50391731 L4.02270497,11.5359594 C4.19088415,11.6574921 4.28154863,11.7328474 4.24304657,12.0630259 L3.90144832,13.1211523 L7.83926926,12.7249157 C7.99597507,12.7150372 8.12664114,12.7722203 8.12540975,12.8589849 L7.88595242,16.873207 L9.01470072,16.8867224 L8.74972277,12.8631698 C8.74804113,12.7591577 8.8478668,12.7073642 9.01993327,12.7258712 L13.0195275,13.1421391 L12.7091859,12.2018905 C12.6349583,12.0009433 12.6043257,11.8043946 12.7809103,11.6161814 L16.8869129,8.51447731 L15.9036085,8.07271731 C15.8130089,8.00737062 15.7697237,7.87858762 15.8270868,7.70751731 L16.5473477,5.28575731 L14.184739,5.74951731 C13.9916936,5.77204785 13.8612816,5.71087644 13.8069129,5.61751731 L13.4673477,4.55799731 L11.5676955,6.48695731 C11.1564968,6.85210099 10.8772928,6.60592233 10.9497825,6.15695731 L11.5753477,3.01183731 L11.7532607,2.15383751 L10.5423042,2.71791731 C10.2418569,2.83471654 10.0906753,2.71151992 9.9396955,2.58767731 L8.44752159,0.00927748096 Z" id="path1882"></path>
                    </g>
                    <g id="Conservative_maple_leaf" transform="translate(184.316000, 96.580000) rotate(90.000000) translate(-184.316000, -96.580000) translate(175.736000, 88.000000)">
                        <path d="M8.44752159,0.00927748096 L7.49865202,1.66191751 L6.95821724,2.59471731 C6.8097164,2.71640033 6.65867932,2.83364196 6.36326072,2.71879731 L5.15230419,2.15471742 L5.15517376,2.17055731 L5.14273898,2.16439742 L5.42299985,3.51607731 L5.94621724,6.14639731 C6.0187072,6.59536148 5.74045946,6.84154099 5.32926072,6.47639731 L3.42865202,4.54743731 L3.0890868,5.60695731 C3.03471841,5.70031588 2.90430609,5.76148785 2.71126072,5.73895731 L0.348652143,5.27519731 L1.06891301,7.69695731 C1.12627646,7.86802706 1.08299087,7.99681062 0.992391274,8.06215731 L0.00908695652,8.50391731 L4.02270497,11.5359594 C4.19088415,11.6574921 4.28154863,11.7328474 4.24304657,12.0630259 L3.90144832,13.1211523 L7.83926926,12.7249157 C7.99597507,12.7150372 8.12664114,12.7722203 8.12540975,12.8589849 L7.88595242,16.873207 L9.01470072,16.8867224 L8.74972277,12.8631698 C8.74804113,12.7591577 8.8478668,12.7073642 9.01993327,12.7258712 L13.0195275,13.1421391 L12.7091859,12.2018905 C12.6349583,12.0009433 12.6043257,11.8043946 12.7809103,11.6161814 L16.8869129,8.51447731 L15.9036085,8.07271731 C15.8130089,8.00737062 15.7697237,7.87858762 15.8270868,7.70751731 L16.5473477,5.28575731 L14.184739,5.74951731 C13.9916936,5.77204785 13.8612816,5.71087644 13.8069129,5.61751731 L13.4673477,4.55799731 L11.5676955,6.48695731 C11.1564968,6.85210099 10.8772928,6.60592233 10.9497825,6.15695731 L11.5753477,3.01183731 L11.7532607,2.15383751 L10.5423042,2.71791731 C10.2418569,2.83471654 10.0906753,2.71151992 9.9396955,2.58767731 L8.44752159,0.00927748096 Z" id="path1882"></path>
                    </g>
                    <g id="Conservative_maple_leaf" transform="translate(8.580000, 96.580000) scale(-1, 1) rotate(90.000000) translate(-8.580000, -96.580000) translate(0.000000, 88.000000)">
                        <path d="M8.44752159,0.00927748096 L7.49865202,1.66191751 L6.95821724,2.59471731 C6.8097164,2.71640033 6.65867932,2.83364196 6.36326072,2.71879731 L5.15230419,2.15471742 L5.15517376,2.17055731 L5.14273898,2.16439742 L5.42299985,3.51607731 L5.94621724,6.14639731 C6.0187072,6.59536148 5.74045946,6.84154099 5.32926072,6.47639731 L3.42865202,4.54743731 L3.0890868,5.60695731 C3.03471841,5.70031588 2.90430609,5.76148785 2.71126072,5.73895731 L0.348652143,5.27519731 L1.06891301,7.69695731 C1.12627646,7.86802706 1.08299087,7.99681062 0.992391274,8.06215731 L0.00908695652,8.50391731 L4.02270497,11.5359594 C4.19088415,11.6574921 4.28154863,11.7328474 4.24304657,12.0630259 L3.90144832,13.1211523 L7.83926926,12.7249157 C7.99597507,12.7150372 8.12664114,12.7722203 8.12540975,12.8589849 L7.88595242,16.873207 L9.01470072,16.8867224 L8.74972277,12.8631698 C8.74804113,12.7591577 8.8478668,12.7073642 9.01993327,12.7258712 L13.0195275,13.1421391 L12.7091859,12.2018905 C12.6349583,12.0009433 12.6043257,11.8043946 12.7809103,11.6161814 L16.8869129,8.51447731 L15.9036085,8.07271731 C15.8130089,8.00737062 15.7697237,7.87858762 15.8270868,7.70751731 L16.5473477,5.28575731 L14.184739,5.74951731 C13.9916936,5.77204785 13.8612816,5.71087644 13.8069129,5.61751731 L13.4673477,4.55799731 L11.5676955,6.48695731 C11.1564968,6.85210099 10.8772928,6.60592233 10.9497825,6.15695731 L11.5753477,3.01183731 L11.7532607,2.15383751 L10.5423042,2.71791731 C10.2418569,2.83471654 10.0906753,2.71151992 9.9396955,2.58767731 L8.44752159,0.00927748096 Z" id="path1882"></path>
                    </g>
                </g>
                <g id="Group-3" transform="translate(132.028184, 131.894816) rotate(240.000000) translate(-132.028184, -131.894816) translate(35.503184, 35.369816)">
                    <g id="Conservative_maple_leaf" transform="translate(96.316000, 184.316000) rotate(180.000000) translate(-96.316000, -184.316000) translate(87.736000, 175.736000)">
                        <path d="M8.44752159,0.00927748096 L7.49865202,1.66191751 L6.95821724,2.59471731 C6.8097164,2.71640033 6.65867932,2.83364196 6.36326072,2.71879731 L5.15230419,2.15471742 L5.15517376,2.17055731 L5.14273898,2.16439742 L5.42299985,3.51607731 L5.94621724,6.14639731 C6.0187072,6.59536148 5.74045946,6.84154099 5.32926072,6.47639731 L3.42865202,4.54743731 L3.0890868,5.60695731 C3.03471841,5.70031588 2.90430609,5.76148785 2.71126072,5.73895731 L0.348652143,5.27519731 L1.06891301,7.69695731 C1.12627646,7.86802706 1.08299087,7.99681062 0.992391274,8.06215731 L0.00908695652,8.50391731 L4.02270497,11.5359594 C4.19088415,11.6574921 4.28154863,11.7328474 4.24304657,12.0630259 L3.90144832,13.1211523 L7.83926926,12.7249157 C7.99597507,12.7150372 8.12664114,12.7722203 8.12540975,12.8589849 L7.88595242,16.873207 L9.01470072,16.8867224 L8.74972277,12.8631698 C8.74804113,12.7591577 8.8478668,12.7073642 9.01993327,12.7258712 L13.0195275,13.1421391 L12.7091859,12.2018905 C12.6349583,12.0009433 12.6043257,11.8043946 12.7809103,11.6161814 L16.8869129,8.51447731 L15.9036085,8.07271731 C15.8130089,8.00737062 15.7697237,7.87858762 15.8270868,7.70751731 L16.5473477,5.28575731 L14.184739,5.74951731 C13.9916936,5.77204785 13.8612816,5.71087644 13.8069129,5.61751731 L13.4673477,4.55799731 L11.5676955,6.48695731 C11.1564968,6.85210099 10.8772928,6.60592233 10.9497825,6.15695731 L11.5753477,3.01183731 L11.7532607,2.15383751 L10.5423042,2.71791731 C10.2418569,2.83471654 10.0906753,2.71151992 9.9396955,2.58767731 L8.44752159,0.00927748096 Z" id="path1882"></path>
                    </g>
                    <g id="Conservative_maple_leaf" transform="translate(88.000000, 0.000000)">
                        <path d="M8.44752159,0.00927748096 L7.49865202,1.66191751 L6.95821724,2.59471731 C6.8097164,2.71640033 6.65867932,2.83364196 6.36326072,2.71879731 L5.15230419,2.15471742 L5.15517376,2.17055731 L5.14273898,2.16439742 L5.42299985,3.51607731 L5.94621724,6.14639731 C6.0187072,6.59536148 5.74045946,6.84154099 5.32926072,6.47639731 L3.42865202,4.54743731 L3.0890868,5.60695731 C3.03471841,5.70031588 2.90430609,5.76148785 2.71126072,5.73895731 L0.348652143,5.27519731 L1.06891301,7.69695731 C1.12627646,7.86802706 1.08299087,7.99681062 0.992391274,8.06215731 L0.00908695652,8.50391731 L4.02270497,11.5359594 C4.19088415,11.6574921 4.28154863,11.7328474 4.24304657,12.0630259 L3.90144832,13.1211523 L7.83926926,12.7249157 C7.99597507,12.7150372 8.12664114,12.7722203 8.12540975,12.8589849 L7.88595242,16.873207 L9.01470072,16.8867224 L8.74972277,12.8631698 C8.74804113,12.7591577 8.8478668,12.7073642 9.01993327,12.7258712 L13.0195275,13.1421391 L12.7091859,12.2018905 C12.6349583,12.0009433 12.6043257,11.8043946 12.7809103,11.6161814 L16.8869129,8.51447731 L15.9036085,8.07271731 C15.8130089,8.00737062 15.7697237,7.87858762 15.8270868,7.70751731 L16.5473477,5.28575731 L14.184739,5.74951731 C13.9916936,5.77204785 13.8612816,5.71087644 13.8069129,5.61751731 L13.4673477,4.55799731 L11.5676955,6.48695731 C11.1564968,6.85210099 10.8772928,6.60592233 10.9497825,6.15695731 L11.5753477,3.01183731 L11.7532607,2.15383751 L10.5423042,2.71791731 C10.2418569,2.83471654 10.0906753,2.71151992 9.9396955,2.58767731 L8.44752159,0.00927748096 Z" id="path1882"></path>
                    </g>
                    <g id="Conservative_maple_leaf" transform="translate(184.316000, 96.580000) rotate(90.000000) translate(-184.316000, -96.580000) translate(175.736000, 88.000000)">
                        <path d="M8.44752159,0.00927748096 L7.49865202,1.66191751 L6.95821724,2.59471731 C6.8097164,2.71640033 6.65867932,2.83364196 6.36326072,2.71879731 L5.15230419,2.15471742 L5.15517376,2.17055731 L5.14273898,2.16439742 L5.42299985,3.51607731 L5.94621724,6.14639731 C6.0187072,6.59536148 5.74045946,6.84154099 5.32926072,6.47639731 L3.42865202,4.54743731 L3.0890868,5.60695731 C3.03471841,5.70031588 2.90430609,5.76148785 2.71126072,5.73895731 L0.348652143,5.27519731 L1.06891301,7.69695731 C1.12627646,7.86802706 1.08299087,7.99681062 0.992391274,8.06215731 L0.00908695652,8.50391731 L4.02270497,11.5359594 C4.19088415,11.6574921 4.28154863,11.7328474 4.24304657,12.0630259 L3.90144832,13.1211523 L7.83926926,12.7249157 C7.99597507,12.7150372 8.12664114,12.7722203 8.12540975,12.8589849 L7.88595242,16.873207 L9.01470072,16.8867224 L8.74972277,12.8631698 C8.74804113,12.7591577 8.8478668,12.7073642 9.01993327,12.7258712 L13.0195275,13.1421391 L12.7091859,12.2018905 C12.6349583,12.0009433 12.6043257,11.8043946 12.7809103,11.6161814 L16.8869129,8.51447731 L15.9036085,8.07271731 C15.8130089,8.00737062 15.7697237,7.87858762 15.8270868,7.70751731 L16.5473477,5.28575731 L14.184739,5.74951731 C13.9916936,5.77204785 13.8612816,5.71087644 13.8069129,5.61751731 L13.4673477,4.55799731 L11.5676955,6.48695731 C11.1564968,6.85210099 10.8772928,6.60592233 10.9497825,6.15695731 L11.5753477,3.01183731 L11.7532607,2.15383751 L10.5423042,2.71791731 C10.2418569,2.83471654 10.0906753,2.71151992 9.9396955,2.58767731 L8.44752159,0.00927748096 Z" id="path1882"></path>
                    </g>
                    <g id="Conservative_maple_leaf" transform="translate(8.580000, 96.580000) scale(-1, 1) rotate(90.000000) translate(-8.580000, -96.580000) translate(0.000000, 88.000000)">
                        <path d="M8.44752159,0.00927748096 L7.49865202,1.66191751 L6.95821724,2.59471731 C6.8097164,2.71640033 6.65867932,2.83364196 6.36326072,2.71879731 L5.15230419,2.15471742 L5.15517376,2.17055731 L5.14273898,2.16439742 L5.42299985,3.51607731 L5.94621724,6.14639731 C6.0187072,6.59536148 5.74045946,6.84154099 5.32926072,6.47639731 L3.42865202,4.54743731 L3.0890868,5.60695731 C3.03471841,5.70031588 2.90430609,5.76148785 2.71126072,5.73895731 L0.348652143,5.27519731 L1.06891301,7.69695731 C1.12627646,7.86802706 1.08299087,7.99681062 0.992391274,8.06215731 L0.00908695652,8.50391731 L4.02270497,11.5359594 C4.19088415,11.6574921 4.28154863,11.7328474 4.24304657,12.0630259 L3.90144832,13.1211523 L7.83926926,12.7249157 C7.99597507,12.7150372 8.12664114,12.7722203 8.12540975,12.8589849 L7.88595242,16.873207 L9.01470072,16.8867224 L8.74972277,12.8631698 C8.74804113,12.7591577 8.8478668,12.7073642 9.01993327,12.7258712 L13.0195275,13.1421391 L12.7091859,12.2018905 C12.6349583,12.0009433 12.6043257,11.8043946 12.7809103,11.6161814 L16.8869129,8.51447731 L15.9036085,8.07271731 C15.8130089,8.00737062 15.7697237,7.87858762 15.8270868,7.70751731 L16.5473477,5.28575731 L14.184739,5.74951731 C13.9916936,5.77204785 13.8612816,5.71087644 13.8069129,5.61751731 L13.4673477,4.55799731 L11.5676955,6.48695731 C11.1564968,6.85210099 10.8772928,6.60592233 10.9497825,6.15695731 L11.5753477,3.01183731 L11.7532607,2.15383751 L10.5423042,2.71791731 C10.2418569,2.83471654 10.0906753,2.71151992 9.9396955,2.58767731 L8.44752159,0.00927748096 Z" id="path1882"></path>
                    </g>
                </g>
                <g id="Group" transform="translate(35.552000, 35.552000)">
                    <g id="Conservative_maple_leaf" transform="translate(96.316000, 184.316000) rotate(180.000000) translate(-96.316000, -184.316000) translate(87.736000, 175.736000)">
                        <path d="M8.44752156,0.0086976384 L7.49858813,1.66145122 L6.95811698,2.59431512 C6.80960614,2.7160065 6.6585589,2.83325619 6.36312042,2.71840365 L5.1520824,2.154285 L5.15495216,2.17012598 L5.14251654,2.16396567 L5.42279627,3.51573843 L5.94604887,6.14623917 C6.01854371,6.59523419 5.74027725,6.84143061 5.32905083,6.47626184 L3.42831422,4.5471693 L3.08872615,5.6067621 C3.0343541,5.70012708 2.903933,5.76130325 2.71087464,5.73877117 L0.348107061,5.2749793 L1.0684164,7.69690571 C1.12578372,7.86798721 1.08249521,7.99677963 0.991889515,8.0621308 L0.00851902174,8.50392116 L4.02240716,11.5361716 C4.19059765,11.6577126 4.28126824,11.7330731 4.24276358,12.0632743 L3.90114234,13.1214734 L7.8392283,12.7252096 C7.99594465,12.7153304 8.12661952,12.7725174 8.12538805,12.859288 L7.8859146,16.8737859 L9.01473886,16.8873023 L8.74974308,12.8634732 C8.74806132,12.759454 8.84789371,12.7076568 9.01997177,12.7261652 L13.0198351,13.1424616 L12.7094727,12.2021484 C12.6352401,12.0011874 12.6046054,11.8046253 12.7812019,11.616399 L16.8874808,8.51448188 L15.9041103,8.07269153 C15.8135046,8.00734035 15.7702164,7.8785485 15.8275834,7.70746644 L16.5478928,5.28554003 L14.1851251,5.7493319 C13.9920667,5.77186398 13.8616459,5.71068837 13.8072736,5.61732283 L13.4676855,4.55773002 L11.5679055,6.48682257 C11.156679,6.85199134 10.8774563,6.60579576 10.9499508,6.15679989 L11.5755581,3.01146378 L11.7534832,2.15340502 L10.5424451,2.71752359 C10.2419776,2.83433084 10.0907859,2.71112576 9.9397959,2.58727464 L8.44752156,0.0086976384 Z" id="path1882"></path>
                    </g>
                    <g id="Conservative_maple_leaf" transform="translate(88.000000, 0.000000)">
                        <path d="M8.44752156,0.0086976384 L7.49858813,1.66145122 L6.95811698,2.59431512 C6.80960614,2.7160065 6.6585589,2.83325619 6.36312042,2.71840365 L5.1520824,2.154285 L5.15495216,2.17012598 L5.14251654,2.16396567 L5.42279627,3.51573843 L5.94604887,6.14623917 C6.01854371,6.59523419 5.74027725,6.84143061 5.32905083,6.47626184 L3.42831422,4.5471693 L3.08872615,5.6067621 C3.0343541,5.70012708 2.903933,5.76130325 2.71087464,5.73877117 L0.348107061,5.2749793 L1.0684164,7.69690571 C1.12578372,7.86798721 1.08249521,7.99677963 0.991889515,8.0621308 L0.00851902174,8.50392116 L4.02240716,11.5361716 C4.19059765,11.6577126 4.28126824,11.7330731 4.24276358,12.0632743 L3.90114234,13.1214734 L7.8392283,12.7252096 C7.99594465,12.7153304 8.12661952,12.7725174 8.12538805,12.859288 L7.8859146,16.8737859 L9.01473886,16.8873023 L8.74974308,12.8634732 C8.74806132,12.759454 8.84789371,12.7076568 9.01997177,12.7261652 L13.0198351,13.1424616 L12.7094727,12.2021484 C12.6352401,12.0011874 12.6046054,11.8046253 12.7812019,11.616399 L16.8874808,8.51448188 L15.9041103,8.07269153 C15.8135046,8.00734035 15.7702164,7.8785485 15.8275834,7.70746644 L16.5478928,5.28554003 L14.1851251,5.7493319 C13.9920667,5.77186398 13.8616459,5.71068837 13.8072736,5.61732283 L13.4676855,4.55773002 L11.5679055,6.48682257 C11.156679,6.85199134 10.8774563,6.60579576 10.9499508,6.15679989 L11.5755581,3.01146378 L11.7534832,2.15340502 L10.5424451,2.71752359 C10.2419776,2.83433084 10.0907859,2.71112576 9.9397959,2.58727464 L8.44752156,0.0086976384 Z" id="path1882"></path>
                    </g>
                    <g id="Conservative_maple_leaf" transform="translate(184.316000, 96.580000) rotate(90.000000) translate(-184.316000, -96.580000) translate(175.736000, 88.000000)">
                        <path d="M8.44752156,0.0086976384 L7.49858813,1.66145122 L6.95811698,2.59431512 C6.80960614,2.7160065 6.6585589,2.83325619 6.36312042,2.71840365 L5.1520824,2.154285 L5.15495216,2.17012598 L5.14251654,2.16396567 L5.42279627,3.51573843 L5.94604887,6.14623917 C6.01854371,6.59523419 5.74027725,6.84143061 5.32905083,6.47626184 L3.42831422,4.5471693 L3.08872615,5.6067621 C3.0343541,5.70012708 2.903933,5.76130325 2.71087464,5.73877117 L0.348107061,5.2749793 L1.0684164,7.69690571 C1.12578372,7.86798721 1.08249521,7.99677963 0.991889515,8.0621308 L0.00851902174,8.50392116 L4.02240716,11.5361716 C4.19059765,11.6577126 4.28126824,11.7330731 4.24276358,12.0632743 L3.90114234,13.1214734 L7.8392283,12.7252096 C7.99594465,12.7153304 8.12661952,12.7725174 8.12538805,12.859288 L7.8859146,16.8737859 L9.01473886,16.8873023 L8.74974308,12.8634732 C8.74806132,12.759454 8.84789371,12.7076568 9.01997177,12.7261652 L13.0198351,13.1424616 L12.7094727,12.2021484 C12.6352401,12.0011874 12.6046054,11.8046253 12.7812019,11.616399 L16.8874808,8.51448188 L15.9041103,8.07269153 C15.8135046,8.00734035 15.7702164,7.8785485 15.8275834,7.70746644 L16.5478928,5.28554003 L14.1851251,5.7493319 C13.9920667,5.77186398 13.8616459,5.71068837 13.8072736,5.61732283 L13.4676855,4.55773002 L11.5679055,6.48682257 C11.156679,6.85199134 10.8774563,6.60579576 10.9499508,6.15679989 L11.5755581,3.01146378 L11.7534832,2.15340502 L10.5424451,2.71752359 C10.2419776,2.83433084 10.0907859,2.71112576 9.9397959,2.58727464 L8.44752156,0.0086976384 Z" id="path1882"></path>
                    </g>
                    <g id="Conservative_maple_leaf" transform="translate(8.580000, 96.580000) scale(-1, 1) rotate(90.000000) translate(-8.580000, -96.580000) translate(0.000000, 88.000000)">
                        <path d="M8.44752156,0.0086976384 L7.49858813,1.66145122 L6.95811698,2.59431512 C6.80960614,2.7160065 6.6585589,2.83325619 6.36312042,2.71840365 L5.1520824,2.154285 L5.15495216,2.17012598 L5.14251654,2.16396567 L5.42279627,3.51573843 L5.94604887,6.14623917 C6.01854371,6.59523419 5.74027725,6.84143061 5.32905083,6.47626184 L3.42831422,4.5471693 L3.08872615,5.6067621 C3.0343541,5.70012708 2.903933,5.76130325 2.71087464,5.73877117 L0.348107061,5.2749793 L1.0684164,7.69690571 C1.12578372,7.86798721 1.08249521,7.99677963 0.991889515,8.0621308 L0.00851902174,8.50392116 L4.02240716,11.5361716 C4.19059765,11.6577126 4.28126824,11.7330731 4.24276358,12.0632743 L3.90114234,13.1214734 L7.8392283,12.7252096 C7.99594465,12.7153304 8.12661952,12.7725174 8.12538805,12.859288 L7.8859146,16.8737859 L9.01473886,16.8873023 L8.74974308,12.8634732 C8.74806132,12.759454 8.84789371,12.7076568 9.01997177,12.7261652 L13.0198351,13.1424616 L12.7094727,12.2021484 C12.6352401,12.0011874 12.6046054,11.8046253 12.7812019,11.616399 L16.8874808,8.51448188 L15.9041103,8.07269153 C15.8135046,8.00734035 15.7702164,7.8785485 15.8275834,7.70746644 L16.5478928,5.28554003 L14.1851251,5.7493319 C13.9920667,5.77186398 13.8616459,5.71068837 13.8072736,5.61732283 L13.4676855,4.55773002 L11.5679055,6.48682257 C11.156679,6.85199134 10.8774563,6.60579576 10.9499508,6.15679989 L11.5755581,3.01146378 L11.7534832,2.15340502 L10.5424451,2.71752359 C10.2419776,2.83433084 10.0907859,2.71112576 9.9397959,2.58727464 L8.44752156,0.0086976384 Z" id="path1882"></path>
                    </g>
                </g>
            </g>
        </g>
    </g>
</svg>