<?xml version="1.0" encoding="UTF-8"?>
<svg width="320px" height="99px" viewBox="0 0 320 99" version="1.1" xmlns="http://www.w3.org/2000/svg" xmlns:xlink="http://www.w3.org/1999/xlink">
    <!-- Generator: Sketch 44.1 (41455) - http://www.bohemiancoding.com/sketch -->
    <title>Alternate</title>
    <desc>Created with Sketch.</desc>
    <defs></defs>
    <g id="Page-1" stroke="none" stroke-width="1" fill="none" fill-rule="evenodd">
        <g id="Alternate">
            <text id="maple-west" font-family="Baskerville" font-size="64" font-weight="normal" letter-spacing="0.666666687" fill="#FFFFFF">
                <tspan x="14" y="62">maple west</tspan>
            </text>
            <g id="Flag_of_Canada-Copy" transform="translate(148.000000, 19.000000)" fill-rule="nonzero">
                <rect id="Rectangle-path" fill="#FF0000" x="0" y="0" width="24.716502" height="12.4937979"></rect>
                <rect id="Rectangle-path" fill="#FFFFFF" x="6.1791255" y="0" width="12.358251" height="12.4937979"></rect>
                <path d="M12.3580602,1.17129355 L11.5149032,2.76113657 C11.4192291,2.93392605 11.24781,2.9178995 11.0763907,2.82139116 L10.4659675,2.5018353 L10.9209254,4.94380081 C11.0165995,5.38993409 10.7096341,5.38993409 10.5581452,5.19703385 L9.492838,3.99135762 L9.31988724,4.60362868 C9.299943,4.68403302 9.21225157,4.76848284 9.08069379,4.74837208 L7.73360068,4.46203622 L8.08742334,5.76250939 C8.16316731,6.05187924 8.22224939,6.17168827 8.01095666,6.24800813 L7.5308092,6.47615113 L9.8497428,8.38041532 C9.94152754,8.45241732 9.98790088,8.58199025 9.95522493,8.69930951 L9.75226883,9.372652 C10.5507119,9.27960544 11.2661294,9.13961919 12.0649768,9.05340573 C12.1354987,9.04579476 12.2535608,9.1634531 12.2530766,9.24607459 L12.147284,11.7129355 L12.5354911,11.7129355 L12.4743827,9.25136496 C12.4738958,9.16874348 12.5810028,9.04579476 12.6515246,9.05340573 C13.4503721,9.13961944 14.1657905,9.27960544 14.9642334,9.372652 L14.7612778,8.69930951 C14.7286018,8.58199025 14.7749749,8.45241732 14.8667597,8.38041532 L17.1856928,6.47615113 L16.7055458,6.24800813 C16.4942526,6.17168827 16.5533347,6.05187924 16.6290786,5.76250939 L16.982902,4.46203622 L15.6358082,4.74837208 C15.5042504,4.76848284 15.416559,4.68403302 15.3966142,4.60362868 L15.2236637,3.99135762 L14.158357,5.19703385 C14.0068676,5.38993409 13.699902,5.38993409 13.7955761,4.94380081 L14.2505333,2.5018353 L13.6401113,2.82139116 C13.4686878,2.9178995 13.2972729,2.93392605 13.2015986,2.76113657" id="Shape" fill="#FF0000"></path>
            </g>
        </g>
    </g>
</svg>